<svg width="1200" height="630" viewBox="0 0 1200 630" fill="none" xmlns="http://www.w3.org/2000/svg">
  <defs>
    <linearGradient id="background" x1="74" y1="26" x2="1104" y2="630" gradientUnits="userSpaceOnUse">
      <stop stop-color="#181818"/>
      <stop offset="1" stop-color="#080808"/>
    </linearGradient>
    <radialGradient id="glow" cx="0" cy="0" r="1" gradientTransform="translate(1014 82) rotate(139) scale(519 463)" gradientUnits="userSpaceOnUse">
      <stop stop-color="#FFAD4A" stop-opacity="0.28"/>
      <stop offset="1" stop-color="#FFAD4A" stop-opacity="0"/>
    </radialGradient>
    <pattern id="grid" width="56" height="56" patternUnits="userSpaceOnUse">
      <path d="M56 0H0V56" stroke="white" stroke-opacity="0.035"/>
    </pattern>
  </defs>

  <rect width="1200" height="630" rx="28" fill="url(#background)"/>
  <rect width="1200" height="630" rx="28" fill="url(#glow)"/>
  <rect width="1200" height="630" rx="28" fill="url(#grid)"/>
  <rect x="1" y="1" width="1198" height="628" rx="27" stroke="white" stroke-opacity="0.1" stroke-width="2"/>

  <text x="72" y="96" fill="#F7F7F7" font-family="Arial, sans-serif" font-size="34" font-weight="700">CompRank</text>
  <rect x="72" y="132" width="470" height="38" rx="19" fill="#FFAD4A" fill-opacity="0.12" stroke="#FFAD4A" stroke-opacity="0.38"/>
  <text x="92" y="157" fill="#FFC846" font-family="Arial, sans-serif" font-size="15" font-weight="700">LOGICIEL DE COMPÉTITION · FRANCE</text>

  <text x="72" y="282" fill="#FFFFFF" font-family="Arial, sans-serif" font-size="68" font-weight="700">CrossFit &amp; HYROX</text>
  <text x="72" y="368" fill="#FFFFFF" font-family="Arial, sans-serif" font-size="68" font-weight="700">du planning au podium</text>

  <text x="72" y="438" fill="#A3A3A3" font-family="Arial, sans-serif" font-size="25" font-weight="400">Centralisez le jour J. Publiez les résultats en direct.</text>

  <g>
    <rect x="884" y="188" width="244" height="228" rx="18" fill="#181818" stroke="white" stroke-opacity="0.12"/>
    <text x="908" y="225" fill="#FFFFFF" font-family="Arial, sans-serif" font-size="18" font-weight="700">CLASSEMENT</text>
    <circle cx="1091" cy="218" r="5" fill="#FFAD4A"/>
    <text x="1102" y="224" fill="#FFC846" font-family="Arial, sans-serif" font-size="12" font-weight="700">LIVE</text>
    <path d="M908 246H1104" stroke="white" stroke-opacity="0.1"/>

    <circle cx="926" cy="282" r="17" fill="#FFAD4A" fill-opacity="0.14"/>
    <text x="918" y="288" fill="#FFC846" font-family="Arial, sans-serif" font-size="15" font-weight="700">01</text>
    <rect x="958" y="273" width="84" height="8" rx="4" fill="#D4D4D4"/>
    <rect x="958" y="288" width="56" height="6" rx="3" fill="#525252"/>
    <text x="1064" y="288" fill="#FFC846" font-family="Arial, sans-serif" font-size="18" font-weight="700">398</text>

    <circle cx="926" cy="332" r="17" fill="white" fill-opacity="0.08"/>
    <text x="918" y="338" fill="#D4D4D4" font-family="Arial, sans-serif" font-size="15" font-weight="700">02</text>
    <rect x="958" y="323" width="70" height="8" rx="4" fill="#A3A3A3"/>
    <rect x="958" y="338" width="48" height="6" rx="3" fill="#404040"/>
    <text x="1064" y="338" fill="#D4D4D4" font-family="Arial, sans-serif" font-size="18" font-weight="700">392</text>

    <circle cx="926" cy="382" r="17" fill="white" fill-opacity="0.06"/>
    <text x="918" y="388" fill="#A3A3A3" font-family="Arial, sans-serif" font-size="15" font-weight="700">03</text>
    <rect x="958" y="373" width="62" height="8" rx="4" fill="#737373"/>
    <rect x="958" y="388" width="42" height="6" rx="3" fill="#333333"/>
    <text x="1064" y="388" fill="#A3A3A3" font-family="Arial, sans-serif" font-size="18" font-weight="700">384</text>
  </g>

  <g font-family="Arial, sans-serif" font-size="19" font-weight="600">
    <circle cx="81" cy="528" r="5" fill="#FFAD4A"/>
    <text x="98" y="535" fill="#D4D4D4">Inscriptions</text>
    <circle cx="274" cy="528" r="5" fill="#FFAD4A"/>
    <text x="291" y="535" fill="#D4D4D4">Planning</text>
    <circle cx="440" cy="528" r="5" fill="#FFAD4A"/>
    <text x="457" y="535" fill="#D4D4D4">Scoring mobile</text>
    <circle cx="680" cy="528" r="5" fill="#FFAD4A"/>
    <text x="697" y="535" fill="#D4D4D4">Classements en direct</text>
  </g>

</svg>
